<?xml version="1.0" encoding="utf-8"?>
<!-- Generator: Adobe Illustrator 27.0.0, SVG Export Plug-In . SVG Version: 6.00 Build 0)  -->
<svg version="1.1" id="Layer_1" xmlns="http://www.w3.org/2000/svg" xmlns:xlink="http://www.w3.org/1999/xlink" x="0px" y="0px"
	 viewBox="0 0 600.4 103.4" style="enable-background:new 0 0 600.4 103.4;" xml:space="preserve">
<style type="text/css">
	.st0{fill:#1D68FF;}
</style>
<g>
	<g>
		<path class="st0" d="M152.3,48.5c0,15.1-7.3,27.9-21.6,27.9c-14.3,0-21.4-12.8-21.4-27.7V3.5H81.4v48.3
			c0,28.5,16.9,51.5,49.3,51.5c32.6,0,49.5-23,49.5-51.5V3.5h-27.9V48.5z"/>
		<path class="st0" d="M320.9,0c-17.5,0-31.3,8.3-37.3,21.6C277.9,8.3,264.3,0,245.6,0c-31.4,0-47.4,22.8-47.4,49.9v50.9h27.9V54.4
			c0-14.7,6.1-27.3,21.6-27.3c15.1,0,21.6,12.4,21.6,27.3v46.4h27.9V54.2c0-14.7,6.5-27.1,21.6-27.1c15.3,0,21.8,12.6,21.8,27.5
			v46.2h27.9V49.9C368.7,22.8,352.6,0,320.9,0z"/>
		<path class="st0" d="M434.4,0c-30.1,0-50.5,23.2-50.5,51.3c0,31.1,22.8,52.1,53.1,52.1c20.6,0,36.8-10,45.2-27.5l-21.4-10.8
			c-4.5,9-13.4,14.2-24,14.2c-14,0-24-8.6-25.9-21.6h72.3v-8.3C483.1,22.8,465.2,0,434.4,0z M412,42.1c2-9.8,10-17.7,22.2-17.7
			c11.8,0,20,7.7,21.2,17.7H412z"/>
		<path class="st0" d="M547.5,0.6c-29.9,0-52.7,23.4-52.7,51.3c0,28.3,19.9,51.5,48.2,51.5c13.4,0,24-5.3,30.9-14v11.4h26.5V51.9
			C600.4,22.6,578,0.6,547.5,0.6z M547.5,77.2c-14.3,0-24.8-11.4-24.8-25.2c0-13.8,10.4-25.2,24.8-25.2c14.3,0,25,11.4,25,25.2
			C572.5,65.8,561.8,77.2,547.5,77.2z"/>
	</g>
	<path class="st0" d="M19.9,71.4c-0.4,0-0.6-0.3-0.7-0.4c-0.1-0.2-0.2-0.5,0-0.8L57.7,3.5H21.7L6.6,29.8c-8.8,15.2-8.8,33.3,0,48.4
		c8.8,15.2,24.4,24.2,41.9,24.2h26.1V71.4H19.9z"/>
	<line class="st0" x1="54.5" y1="3.5" x2="22.6" y2="3.5"/>
	<line class="st0" x1="73.3" y1="100.4" x2="73.3" y2="72.8"/>
</g>
</svg>
